<svg id="visual" viewBox="0 0 960 540" width="960" height="540" xmlns="http://www.w3.org/2000/svg" xmlns:xlink="http://www.w3.org/1999/xlink" version="1.1"><rect x="0" y="0" width="960" height="540" fill="#002233"></rect><path d="M0 373L22.8 373.5C45.7 374 91.3 375 137 388.7C182.7 402.3 228.3 428.7 274 443.2C319.7 457.7 365.3 460.3 411.2 460.2C457 460 503 457 548.8 440.2C594.7 423.3 640.3 392.7 686 382.3C731.7 372 777.3 382 823 392.2C868.7 402.3 914.3 412.7 937.2 417.8L960 423L960 541L937.2 541C914.3 541 868.7 541 823 541C777.3 541 731.7 541 686 541C640.3 541 594.7 541 548.8 541C503 541 457 541 411.2 541C365.3 541 319.7 541 274 541C228.3 541 182.7 541 137 541C91.3 541 45.7 541 22.8 541L0 541Z" fill="#0066FF" stroke-linecap="round" stroke-linejoin="miter"></path></svg>